<svg id="Icon_32px_Video_Consult_2" data-name="Icon / 32px / Video Consult 2" xmlns="http://www.w3.org/2000/svg" xmlns:xlink="http://www.w3.org/1999/xlink" width="32" height="32" viewBox="0 0 32 32">
  <defs>
    <clipPath id="clip-path">
      <rect id="mobile_1_Background_Mask_" data-name="mobile 1 (Background/Mask)" width="32" height="32" fill="none"/>
    </clipPath>
  </defs>
  <g id="Icon_32px_Video_Consult_2-2" data-name="Icon / 32px / Video Consult 2">
    <g id="mobile_1" data-name="mobile 1">
      <rect id="mobile_1_Background_Mask_2" data-name="mobile 1 (Background/Mask)" width="32" height="32" fill="none"/>
      <g id="mobile_1-2" data-name="mobile 1" clip-path="url(#clip-path)">
        <path id="Vector" d="M16.707.293A1,1,0,0,0,16,0H1A1,1,0,0,0,0,1V26H17V1A1,1,0,0,0,16.707.293Z" transform="translate(4.25 1)" fill="#ebebeb"/>
        <path id="Vector-2" data-name="Vector" d="M15.572,13.224A8.5,8.5,0,1,1,8.5,0,7.865,7.865,0,0,1,9.649.08a8.307,8.307,0,0,1,3.26,1.15.118.118,0,0,1,.045.03,8.409,8.409,0,0,1,1.56,1.23.059.059,0,0,1,.025.025,8.5,8.5,0,0,1,1.033,10.709Z" transform="translate(10.746 5)" fill="#e3fcfd"/>
        <g id="Group" transform="translate(4.25 4.997)">
          <path id="Vector-3" data-name="Vector" d="M0,3A1,1,0,0,0,1,4H16a1,1,0,0,0,1-1V0H0Z" transform="translate(0 22.003)" fill="#c3c9c9"/>
          <path id="Vector-4" data-name="Vector" d="M2.29,8.175A8.515,8.515,0,0,1,.335,0,2.512,2.512,0,0,1,.96.6l.6.8a1.516,1.516,0,0,0,2.125.3,1.518,1.518,0,0,1,2.13.3L6.6,3.03a1.516,1.516,0,0,1-.3,2.125h0Z" transform="translate(6.5 6.128)" fill="#c3c9c9"/>
          <path id="Vector-5" data-name="Vector" d="M.282.31A.8.8,0,0,0,.167.6a1.019,1.019,0,0,0,.3,1.415l1.245.81a1.028,1.028,0,0,1,.3,1.415l-.335.515a1.633,1.633,0,0,0,.48,2.265l1.72,1.115a1.635,1.635,0,0,0,2.265-.48l1.25-1.93Q1.812-.693.5.084A.8.8,0,0,0,.282.31Z" transform="translate(15.643)" fill="#c3c9c9"/>
          <path id="Vector-6" data-name="Vector" d="M1,2A1,1,0,1,1,2,1,1,1,0,0,1,1,2Z" transform="translate(16.75 11.003)" fill="#c3c9c9"/>
        </g>
        <path id="Vector-7" data-name="Vector" d="M17,32H2a2,2,0,0,1-2-2V2A2,2,0,0,1,2,0H17a2,2,0,0,1,2,2V4.493a9.494,9.494,0,0,1,0,18.014V30a2,2,0,0,1-2,2ZM2,28v2H17V28ZM2,2V26H17V22.946a9.5,9.5,0,0,1-3.93-.41A9.5,9.5,0,0,1,16,4a9.541,9.541,0,0,1,1,.053V2H10.5v.5a1,1,0,0,1-2,0V2Zm10.13,9.491h0a2.814,2.814,0,0,1,1.847.875,4.074,4.074,0,0,1,1.4,3.083,2.3,2.3,0,0,1-.994,1.641l-3.036,2.286a7.491,7.491,0,0,0,12.138-6.061,2.821,2.821,0,0,1-2.1,1.12,6.206,6.206,0,0,1-2.624-1.161,4.161,4.161,0,0,1-1.687-2.3,2.8,2.8,0,0,1,.111-1.215A2.838,2.838,0,0,1,17.8,8.7a6.893,6.893,0,0,0-.68-.51c-.742-.512-1.583-1.092-1.5-2.175a7.5,7.5,0,0,0-6.661,4.91c.8.951,1.2,1.151,1.338,1.193.1-.047.2-.1.294-.144A3.445,3.445,0,0,1,12.13,11.491ZM8.509,13.325a7.4,7.4,0,0,0,1.445,4.594l.378-.279a29.23,29.23,0,0,0,3.061-2.4c.008-.077.008-.509-.787-1.412-.263-.231-.393-.327-.519-.327a.76.76,0,0,0-.358.16,2.7,2.7,0,0,1-1.422.47A2.775,2.775,0,0,1,8.509,13.325Zm9.289-7.1h0c.15.116.317.229.493.349.947.644,2.019,1.374,1.255,3.119a2.246,2.246,0,0,1-.188.269,1.01,1.01,0,0,0-.307.683c.116.553,1.612,1.543,2.382,1.782.449-.11,1.013-1.033,1.387-1.644l0-.008.1-.161A7.526,7.526,0,0,0,17.8,6.226Z" transform="translate(3.25)" fill="#f5204e"/>
      </g>
    </g>
  </g>
</svg>
