<svg id="Icon_32px_Stethoscope" data-name="Icon / 32px / Stethoscope" xmlns="http://www.w3.org/2000/svg" xmlns:xlink="http://www.w3.org/1999/xlink" width="32" height="32" viewBox="0 0 32 32">
  <defs>
    <clipPath id="clip-path">
      <rect id="_024-stethoscope_Background_Mask_" data-name="024-stethoscope (Background/Mask)" width="32" height="32" fill="none"/>
    </clipPath>
  </defs>
  <g id="Icon_32px_Stethoscope-2" data-name="Icon / 32px / Stethoscope">
    <g id="_024-stethoscope" data-name="024-stethoscope">
      <rect id="_024-stethoscope_Background_Mask_2" data-name="024-stethoscope (Background/Mask)" width="32" height="32" fill="none"/>
      <g id="_024-stethoscope-2" data-name="024-stethoscope" clip-path="url(#clip-path)">
        <path id="Vector" d="M3.5,7A3.5,3.5,0,1,1,7,3.5,3.5,3.5,0,0,1,3.5,7Z" transform="translate(21 18)" fill="#c3c9c9"/>
        <path id="Vector-2" data-name="Vector" d="M0,0H11.5" transform="translate(1.5 15)" fill="#00e1f0"/>
        <path id="Vector-3" data-name="Vector" d="M12.745,32h-1.5A5.256,5.256,0,0,1,6,26.75V20H5a5,5,0,0,1-5-5V10.5a1.007,1.007,0,0,1,.292-.707,1,1,0,0,1,1.415,0A1.007,1.007,0,0,1,2,10.5V14H12V2.5a.5.5,0,0,0-.5-.5H10a1,1,0,1,1,0-2h1.5a2.517,2.517,0,0,1,1.768.733A2.484,2.484,0,0,1,14,2.5V15a5,5,0,0,1-5,5H8v6.75A3.254,3.254,0,0,0,11.25,30h1.5a3.272,3.272,0,0,0,2.3-.953A3.237,3.237,0,0,0,16,26.75V14.25a4.75,4.75,0,1,1,9.5,0v2.866a4.5,4.5,0,1,1-2,0V14.25a2.75,2.75,0,0,0-5.5,0v12.5A5.261,5.261,0,0,1,12.745,32ZM24.5,19a2.5,2.5,0,0,0,0,5,2.5,2.5,0,0,0,0-5ZM2.18,16A3,3,0,0,0,5,18H9.009a3,3,0,0,0,2.826-2Z" fill="#f5204e"/>
        <path id="Vector-4" data-name="Vector" d="M1.707,7.207A1,1,0,0,0,2,6.5v-4A.5.5,0,0,1,2.5,2H4A1,1,0,0,0,4,0H2.5A2.5,2.5,0,0,0,0,2.5v4a1,1,0,0,0,1.707.707Z" fill="#f5204e"/>
        <path id="Vector-5" data-name="Vector" d="M1,2A1,1,0,1,1,2,1,1,1,0,0,1,1,2Z" transform="translate(29.995 26)" fill="#c3c9c9"/>
        <path id="Vector-6" data-name="Vector" d="M.293,1.707A1,1,0,0,0,1,2H7A1,1,0,1,0,7,0H1A1,1,0,0,0,.293,1.707Z" transform="translate(20 26)" fill="#f5204e"/>
      </g>
    </g>
  </g>
</svg>
