<svg id="Icon_20px_Work" data-name="Icon / 20px / Work" xmlns="http://www.w3.org/2000/svg" width="20" height="20" viewBox="0 0 20 20">
  <g id="Icon_24px_Work" data-name="Icon / 24px / Work">
    <rect id="Icon_24px_Work_Background_" data-name="Icon / 24px / Work (Background)" width="20" height="20" fill="none"/>
    <g id="Work" transform="translate(2.292 2.042)">
      <path id="Stroke_1" data-name="Stroke 1" d="M.417,2.19V0" transform="translate(7.259 9.532)" fill="none" stroke="#f5204e" stroke-linecap="round" stroke-linejoin="round" stroke-width="1.5" stroke-dasharray="0 0"/>
      <path id="Stroke_2" data-name="Stroke 2" d="M15.214,0,15.19.018A14.6,14.6,0,0,1,7.6,2.012,14.567,14.567,0,0,1,.025.018L0,0" transform="translate(0.068 7.523)" fill="none" stroke="#f5204e" stroke-linecap="round" stroke-linejoin="round" stroke-width="1.5" stroke-dasharray="0 0"/>
      <path id="Stroke_4" data-name="Stroke 4" d="M7.676,0c5.757,0,7.676,1.709,7.676,6.836s-1.918,6.836-7.676,6.836S0,11.962,0,6.836,1.919,0,7.676,0Z" transform="translate(0 2.248)" fill="none" stroke="#f5204e" stroke-linecap="round" stroke-linejoin="round" stroke-width="1.5" stroke-dasharray="0 0"/>
      <path id="Stroke_6" data-name="Stroke 6" d="M5.438,2.432V1.908A1.82,1.82,0,0,0,3.721,0h-2A1.82,1.82,0,0,0,0,1.908v.525" transform="translate(4.957)" fill="none" stroke="#f5204e" stroke-linecap="round" stroke-linejoin="round" stroke-width="1.5" stroke-dasharray="0 0"/>
    </g>
  </g>
</svg>
