<svg id="Icon_32px_Covid-19" data-name="Icon / 32px / Covid-19" xmlns="http://www.w3.org/2000/svg" xmlns:xlink="http://www.w3.org/1999/xlink" width="32" height="32" viewBox="0 0 32 32">
  <defs>
    <clipPath id="clip-path">
      <rect id="location_Background_Mask_" data-name="location (Background/Mask)" width="32" height="32" fill="none"/>
    </clipPath>
  </defs>
  <g id="location">
    <rect id="location_Background_Mask_2" data-name="location (Background/Mask)" width="32" height="32" fill="none"/>
    <g id="location-2" data-name="location" clip-path="url(#clip-path)">
      <g id="Group" transform="translate(1.165 -0.017)">
        <path id="Vector" d="M.614,17.516a13.5,13.5,0,1,1,2.025,4" transform="translate(1.665 2.017)" fill="#fff"/>
        <path id="Vector-2" data-name="Vector" d="M15.183,30.02h0a14.634,14.634,0,0,1-6.451-1.506,14.341,14.341,0,0,1-5.241-4.4,1,1,0,0,1,1.61-1.19A12.5,12.5,0,0,0,26.245,9.742a25.543,25.543,0,0,1-1.89,2,1,1,0,0,1-1.375,0c-.441-.417-4.31-4.147-4.31-6.726a5.025,5.025,0,0,1,.211-1.435A12.5,12.5,0,0,0,7.635,5.547,4.338,4.338,0,0,1,8.67,8.352c0,2.4-3.653,5.4-3.69,5.425a1,1,0,0,1-1.29,0c-.265-.229-.525-.466-.775-.7a12.727,12.727,0,0,0-.245,2.44,12.481,12.481,0,0,0,.554,3.705,1,1,0,0,1-.66,1.25,1.054,1.054,0,0,1-.3.045,1,1,0,0,1-.935-.706A14.465,14.465,0,0,1,.67,15.517a14.29,14.29,0,0,1,.635-4.23A5.28,5.28,0,0,1,0,8.332a4.323,4.323,0,0,1,5.945-4,14.5,14.5,0,0,1,13.89-2.54A4.987,4.987,0,0,1,23.669,0h.018A5.007,5.007,0,0,1,28.67,5.017a5.944,5.944,0,0,1-1.125,2.965,14.413,14.413,0,0,1,2.125,7.535A14.5,14.5,0,0,1,23.763,27.2,14.387,14.387,0,0,1,15.183,30.02Zm-10.847-24A2.338,2.338,0,0,0,2,8.352c0,.794,1.258,2.282,2.335,3.315C5.412,10.634,6.67,9.147,6.67,8.352A2.337,2.337,0,0,0,4.335,6.017Zm19.335-4a3,3,0,0,0-3,3c0,1.044,1.55,3.054,3,4.586,1.383-1.447,3-3.517,3-4.586A3,3,0,0,0,23.67,2.017Z" fill="#f5204e"/>
        <path id="Vector-3" data-name="Vector" d="M1,2A1,1,0,1,1,2,1,1,1,0,0,1,1,2Z" transform="translate(23.67 30.017)" fill="#c3c9c9"/>
        <path id="Vector-4" data-name="Vector" d="M1,0A1,1,0,0,0,1,2H12a1,1,0,0,0,0-2Z" transform="translate(8.67 30.017)" fill="#f5204e"/>
      </g>
    </g>
  </g>
</svg>
