<svg id="Icon_32px_Diseases_2" data-name="Icon / 32px / Diseases 2" xmlns="http://www.w3.org/2000/svg" xmlns:xlink="http://www.w3.org/1999/xlink" width="32" height="32" viewBox="0 0 32 32">
  <defs>
    <clipPath id="clip-path">
      <rect id="first-aid_1_Background_Mask_" data-name="first-aid 1 (Background/Mask)" width="32" height="32" fill="none"/>
    </clipPath>
  </defs>
  <g id="first-aid_1" data-name="first-aid 1">
    <rect id="first-aid_1_Background_Mask_2" data-name="first-aid 1 (Background/Mask)" width="32" height="32" fill="none"/>
    <g id="first-aid_1-2" data-name="first-aid 1" clip-path="url(#clip-path)">
      <path id="Vector" d="M29,0V6H0V0Z" transform="translate(1.5 9)" fill="#c3c9c9"/>
      <path id="Vector-2" data-name="Vector" d="M26,0V14a1.5,1.5,0,0,1-1.5,1.5H1.5A1.5,1.5,0,0,1,0,14V0Z" transform="translate(3 15.5)" fill="#fff"/>
      <path id="Vector-3" data-name="Vector" d="M8,0A2,2,0,0,1,8,4H2A2,2,0,0,1,2,0Z" transform="translate(11.5 1.5)" fill="#fff"/>
      <path id="Vector-4" data-name="Vector" d="M27.4,32l-.092,0H4.7L4.6,32A2.606,2.606,0,0,1,2,29.5v-6a.994.994,0,0,1,.293-.707A1,1,0,0,1,4,23.5v6c0,.266.325.5.7.5h22.61c.37,0,.695-.233.695-.5V16H4v3.5a1,1,0,0,1-2,0V15.95A2.5,2.5,0,0,1,0,13.5v-3A2.518,2.518,0,0,1,.733,8.732,2.486,2.486,0,0,1,2.5,8h4V4.5A2.5,2.5,0,0,1,9,2h1.175A3,3,0,0,1,13,0h6a3,3,0,0,1,2.825,2H23a2.517,2.517,0,0,1,1.768.733A2.483,2.483,0,0,1,25.5,4.5V8h4A2.5,2.5,0,0,1,32,10.5v3a2.5,2.5,0,0,1-2,2.45V29.5A2.6,2.6,0,0,1,27.4,32ZM2.5,10a.5.5,0,0,0-.5.5v3a.5.5,0,0,0,.147.354A.5.5,0,0,0,2.5,14h27a.5.5,0,0,0,.5-.5v-3a.5.5,0,0,0-.5-.5ZM9,4a.5.5,0,0,0-.5.5V8h15V4.5A.5.5,0,0,0,23,4H21.825A3,3,0,0,1,19,6H13a3,3,0,0,1-2.824-2Zm4-2a1,1,0,0,0,0,2h6a1,1,0,0,0,.707-.293,1,1,0,0,0,0-1.414A.994.994,0,0,0,19,2Z" fill="#f5204e"/>
      <path id="Vector-5" data-name="Vector" d="M2.793.293A1,1,0,0,0,2.5,1V2.5H1a1,1,0,1,0,0,2H2.5V6a1,1,0,1,0,2,0V4.5H6a1,1,0,1,0,0-2H4.5V1A1,1,0,0,0,2.793.293Z" transform="translate(12.5 18)" fill="#f5204e"/>
      <path id="Vector-6" data-name="Vector" d="M1,2A1,1,0,1,1,2,1,1,1,0,0,1,1,2Z" transform="translate(24 26)" fill="#c3c9c9"/>
      <path id="Vector-7" data-name="Vector" d="M.293,1.707A1,1,0,0,0,1,2H3A1,1,0,1,0,3,0H1A1,1,0,0,0,.293,1.707Z" transform="translate(18 26)" fill="#f5204e"/>
    </g>
  </g>
</svg>
