<svg id="Layer_1" data-name="Layer 1" xmlns="http://www.w3.org/2000/svg" viewBox="0 0 16 16"><defs><style>.cls-1{fill:#fff;}.cls-2{fill:#010101;}</style></defs><path class="cls-1" d="M4.58,4.06a3.49,3.49,0,0,1,2.79-4c.09,0,.18,0,.26-.06s-.07.07-.11.07A3.5,3.5,0,0,0,5.6,1,3.29,3.29,0,0,0,4.62,3a3.34,3.34,0,0,0,.61,2.54A3.32,3.32,0,0,0,7.8,6.9a3.33,3.33,0,0,0,2.7-1.06,3.39,3.39,0,0,0,.93-2.27,3.37,3.37,0,0,0-1-2.52,3.31,3.31,0,0,0-1.92-1S8.4.09,8.38,0c.24.07.51.09.75.18A3.4,3.4,0,0,1,11.44,3a3.47,3.47,0,0,1-6.86,1Z"/><path class="cls-1" d="M14.24,13.3v2.25A.41.41,0,0,1,14,16s0,0,0,0c.21-.13.21-.33.21-.55,0-.66,0-1.32,0-2A5.88,5.88,0,0,0,13.16,10a5.69,5.69,0,0,0-2.33-1.94.07.07,0,0,0-.06,0c0,.05,0,.11,0,.16A7.13,7.13,0,0,1,11,9.87a.23.23,0,0,0,.1.21,5.3,5.3,0,0,1,1.27,1.7,2.29,2.29,0,0,1,.21,1.12,1.43,1.43,0,0,1-.55,1,2,2,0,0,1-.57.3A.36.36,0,0,1,11,14a.36.36,0,0,1,.2-.46c.07,0,.15-.06.21-.1a.78.78,0,0,0,.43-.9,2.64,2.64,0,0,0-.57-1.19,6,6,0,0,0-.62-.7.2.2,0,0,0-.28-.05,5.05,5.05,0,0,0-1.36,1,1.77,1.77,0,0,0-.4.72.73.73,0,0,0,.19.68,1.37,1.37,0,0,0,.22.2.37.37,0,0,1,.09.54.36.36,0,0,1-.53.05,1.55,1.55,0,0,1-.73-1.22,1.8,1.8,0,0,1,.4-1.2,4.82,4.82,0,0,1,1.46-1.27,4.23,4.23,0,0,1,.42-.22.22.22,0,0,0,.14-.22A5.34,5.34,0,0,0,10.17,9C10.12,8.6,10,8.24,10,7.87a.22.22,0,0,0-.2-.2A7.16,7.16,0,0,0,8.3,7.51a9.1,9.1,0,0,0-1.88.12c-.6.15-.46,0-.69.58a16.12,16.12,0,0,0-.87,3.2.17.17,0,0,0,.12.22,1.4,1.4,0,0,1-.31,2.68A1.41,1.41,0,0,1,3.4,12a1.33,1.33,0,0,1,.53-.35.27.27,0,0,0,.19-.25,17.86,17.86,0,0,1,.67-2.78,2.07,2.07,0,0,0,.14-.42,2.67,2.67,0,0,0-.45.26,5.68,5.68,0,0,0-2.4,3.17,5.56,5.56,0,0,0-.27,1.81c0,.67,0,1.36,0,2.05A.51.51,0,0,0,2,16s0,0,0,0a.42.42,0,0,1-.25-.43c0-.76,0-1.52,0-2.28A5.75,5.75,0,0,1,4.94,8.12l.07,0c-.09.29-.19.56-.28.84a18.69,18.69,0,0,0-.59,2.54.16.16,0,0,1-.13.16,1.35,1.35,0,0,0-.93,1.45,1.36,1.36,0,0,0,2.67.18,1.35,1.35,0,0,0-.81-1.6c-.13-.05-.15-.1-.12-.23a15.19,15.19,0,0,1,1-3.61A.24.24,0,0,1,6,7.69a5.7,5.7,0,0,1,1.49-.21,10.25,10.25,0,0,1,1.75.06l.63.12a.1.1,0,0,1,.09.08,10.12,10.12,0,0,1,.32,2,.2.2,0,0,1-.13.22,5.15,5.15,0,0,0-1.82,1.38,2.12,2.12,0,0,0-.46,1,1.5,1.5,0,0,0,.6,1.4.56.56,0,0,0,.15.1.32.32,0,0,0,.43-.07.33.33,0,0,0,0-.45l-.21-.17a.83.83,0,0,1-.22-.94,2.54,2.54,0,0,1,.87-1,5.24,5.24,0,0,1,1-.6s.09,0,.15,0a4.5,4.5,0,0,1,1.21,1.65,1.28,1.28,0,0,1,.1.43.82.82,0,0,1-.54.91l-.14.06A.32.32,0,0,0,11,14a.33.33,0,0,0,.42.18,1.57,1.57,0,0,0,1-2.13,4.59,4.59,0,0,0-1.27-1.86.6.6,0,0,1-.22-.49,6.66,6.66,0,0,0-.23-1.67s0-.07,0-.12a6.32,6.32,0,0,1,1,.52,5.79,5.79,0,0,1,2.52,4A5.3,5.3,0,0,1,14.24,13.3Z"/><path class="cls-2" d="M14.24,13.3v2.25A.41.41,0,0,1,14,16H2a.42.42,0,0,1-.25-.43c0-.76,0-1.52,0-2.28A5.75,5.75,0,0,1,4.94,8.12l.07,0c-.09.29-.19.56-.28.84a18.69,18.69,0,0,0-.59,2.54.16.16,0,0,1-.13.16,1.35,1.35,0,0,0-.93,1.45,1.36,1.36,0,0,0,2.67.18,1.35,1.35,0,0,0-.81-1.6c-.13-.05-.15-.1-.12-.23a15.19,15.19,0,0,1,1-3.61A.24.24,0,0,1,6,7.69a5.7,5.7,0,0,1,1.49-.21,10.25,10.25,0,0,1,1.75.06l.63.12a.1.1,0,0,1,.09.08,10.12,10.12,0,0,1,.32,2,.2.2,0,0,1-.13.22,5.15,5.15,0,0,0-1.82,1.38,2.12,2.12,0,0,0-.46,1,1.5,1.5,0,0,0,.6,1.4.56.56,0,0,0,.15.1.32.32,0,0,0,.43-.07.33.33,0,0,0,0-.45l-.21-.17a.83.83,0,0,1-.22-.94,2.54,2.54,0,0,1,.87-1,5.24,5.24,0,0,1,1-.6s.09,0,.15,0a4.5,4.5,0,0,1,1.21,1.65,1.28,1.28,0,0,1,.1.43.82.82,0,0,1-.54.91l-.14.06A.32.32,0,0,0,11,14a.33.33,0,0,0,.42.18,1.57,1.57,0,0,0,1-2.13,4.59,4.59,0,0,0-1.27-1.86.6.6,0,0,1-.22-.49,6.66,6.66,0,0,0-.23-1.67s0-.07,0-.12a6.32,6.32,0,0,1,1,.52,5.79,5.79,0,0,1,2.52,4A5.3,5.3,0,0,1,14.24,13.3Z"/><path class="cls-2" d="M8.53,6.91A3.47,3.47,0,0,1,7.37.06c.09,0,.18,0,.26-.06h.75c.24.07.51.09.75.18A3.4,3.4,0,0,1,11.44,3,3.45,3.45,0,0,1,8.53,6.91Z"/></svg>