<svg id="Icon" xmlns="http://www.w3.org/2000/svg" xmlns:xlink="http://www.w3.org/1999/xlink" width="64" height="80" viewBox="0 0 64 80">
  <defs>
    <clipPath id="clip-path">
      <rect id="_004-stethoscope_Background_Mask_" data-name="004-stethoscope (Background/Mask)" width="64" height="64" fill="none"/>
    </clipPath>
  </defs>
  <circle id="BG_Colors" data-name="BG Colors" cx="27" cy="27" r="27" transform="translate(5)" fill="#ebf5ef"/>
  <g id="Icon_64px_General_Care" data-name="Icon / 64px / General Care" transform="translate(0 16)">
    <g id="Icon_64px_Stehoscope" data-name="Icon / 64px / Stehoscope">
      <g id="_004-stethoscope" data-name="004-stethoscope">
        <rect id="_004-stethoscope_Background_Mask_2" data-name="004-stethoscope (Background/Mask)" width="64" height="64" fill="none"/>
        <g id="_004-stethoscope-2" data-name="004-stethoscope" clip-path="url(#clip-path)">
          <g id="_03-Medical_appointment" data-name="03-Medical appointment" transform="translate(6 1)">
            <path id="Vector" d="M20.34.394a5.764,5.764,0,0,1,3.665,5.611c0,9-10,14-12,14-1,0-12-5-12-14a5.764,5.764,0,0,1,6-6c3,0,5,2,6,5,1-3,3-5,6-5A5.764,5.764,0,0,1,20.34.394Z" transform="translate(22.995 22.995)" fill="#ff505b"/>
            <path id="Vector-2" data-name="Vector" d="M1.5,4C.672,4,0,3.1,0,2S.672,0,1.5,0,3,.9,3,2,2.328,4,1.5,4Z" transform="translate(39 16)" fill="#006fdb"/>
            <path id="Vector-3" data-name="Vector" d="M0,.123a2.042,2.042,0,0,1,.764.8A2.042,2.042,0,0,1,1,2,2.042,2.042,0,0,1,.764,3.079a2.042,2.042,0,0,1-.764.8A1.157,1.157,0,0,0,.5,4C1.33,4,2,3.1,2,2S1.33,0,.5,0A1.157,1.157,0,0,0,0,.123Z" transform="translate(40 16)" fill="#005eba"/>
            <path id="Vector-4" data-name="Vector" d="M1.5,4C.672,4,0,3.1,0,2S.672,0,1.5,0,3,.9,3,2,2.328,4,1.5,4Z" transform="translate(28 16)" fill="#006fdb"/>
            <path id="Vector-5" data-name="Vector" d="M1.236.921A2.042,2.042,0,0,1,2,.123,1.157,1.157,0,0,0,1.5,0C.67,0,0,.9,0,2S.67,4,1.5,4A1.157,1.157,0,0,0,2,3.877,2.042,2.042,0,0,1,1,2H1A2.042,2.042,0,0,1,1.236.921Z" transform="translate(28 16)" fill="#005eba"/>
            <path id="Vector-6" data-name="Vector" d="M24,0a.972.972,0,0,0-.193.039,2.489,2.489,0,0,1,0,1.922A.972.972,0,0,0,24,2h5a3,3,0,0,1,3,3v8a16.47,16.47,0,0,1-4.408,11.334A14.457,14.457,0,0,1,17,29C8.729,29,2,21.822,2,13V5A3,3,0,0,1,5,2h5a.972.972,0,0,0,.193-.039,2.489,2.489,0,0,1,0-1.922A.972.972,0,0,0,10,0H5A5.006,5.006,0,0,0,0,5v8c0,9.925,7.626,18,17,18a16.437,16.437,0,0,0,12.049-5.3A18.463,18.463,0,0,0,34,13V5a5.006,5.006,0,0,0-5-5H24Z" transform="translate(18 17)" fill="#c1cfe8"/>
            <path id="Vector-7" data-name="Vector" d="M34,50a9.011,9.011,0,0,1-9,9A23,23,0,0,1,2,36V32A30.034,30.034,0,0,1,32,2a.9.9,0,0,0,.172-.035A2.993,2.993,0,0,1,32,1a2.993,2.993,0,0,1,.172-.965A.9.9,0,0,0,32,0,32.036,32.036,0,0,0,0,32v4A25,25,0,0,0,25,61,11.013,11.013,0,0,0,36,50V45.948c-.333.021-.664.052-1,.052s-.667-.033-1-.054Z" transform="translate(0 2)" fill="#a8b7d4"/>
            <path id="Vector-8" data-name="Vector" d="M4.556,9.461A8.638,8.638,0,0,1,8.014.35,5.835,5.835,0,0,0,6.005.005a5.764,5.764,0,0,0-6,6c0,9,11,14,12,14a11.646,11.646,0,0,0,4.738-2.1c-5.36-.472-8.69-2.633-10.738-5.337A8.638,8.638,0,0,1,4.556,9.461Z" transform="translate(22.995 22.995)" fill="#e63b47"/>
            <g id="Group" transform="translate(26.998 30)">
              <path id="Vector-9" data-name="Vector" d="M8.438,3.828a1,1,0,0,1-.368-.457C8.053,3.333,7.422,2,5,2S1.945,3.333,1.919,3.39a1.009,1.009,0,0,1-1.307.52A.992.992,0,0,1,.07,2.629C.113,2.521,1.166,0,5,0S9.885,2.521,9.928,2.629A1,1,0,0,1,9,4H9A1,1,0,0,1,8.438,3.828Z" transform="translate(3.003 3)" fill="#fbfbfb"/>
              <path id="Vector-10" data-name="Vector" d="M14.437,5.826a1,1,0,0,1-.368-.463C14.017,5.232,12.648,2,8,2S1.987,5.232,1.931,5.37A1,1,0,1,1,.07,4.637C.144,4.447,1.948,0,8,0s7.858,4.447,7.932,4.637A1,1,0,0,1,15,6h0A1,1,0,0,1,14.437,5.826Z" fill="#fbfbfb"/>
              <path id="Vector-11" data-name="Vector" d="M4.374,2.78a1,1,0,0,1-.351-.563,2.52,2.52,0,0,0-2.046,0A1,1,0,0,1,0,2C0,.841,1.262,0,3,0S6,.841,6,2A1,1,0,0,1,5,3H5A1,1,0,0,1,4.374,2.78Z" transform="translate(5.001 6)" fill="#fbfbfb"/>
            </g>
            <path id="Vector-12" data-name="Vector" d="M3,6A3,3,0,1,1,6,3,3,3,0,0,1,3,6Z" transform="translate(32)" fill="#005eba"/>
            <path id="Vector-13" data-name="Vector" d="M2,4A2,2,0,1,1,4,2,2,2,0,0,1,2,4Z" transform="translate(33 1)" fill="#006fdb"/>
          </g>
        </g>
      </g>
    </g>
  </g>
</svg>
