<?xml version="1.0" encoding="utf-8"?>
<!-- Generator: Adobe Illustrator 25.0.1, SVG Export Plug-In . SVG Version: 6.00 Build 0)  -->
<svg version="1.1" id="Layer_1" xmlns="http://www.w3.org/2000/svg" xmlns:xlink="http://www.w3.org/1999/xlink" x="0px" y="0px"
	 viewBox="0 0 24 14.96" style="enable-background:new 0 0 24 14.96;" xml:space="preserve">
<style type="text/css">
	.st0{fill:#AAAAAA;}
</style>
<g>
	<path class="st0" d="M14.48,7.5c0,1.37-1.12,2.48-2.49,2.48c-1.37,0-2.49-1.11-2.49-2.48c0-1.38,1.12-2.49,2.5-2.49
		C13.37,5.01,14.48,6.13,14.48,7.5z"/>
	<path class="st0" d="M23.48,6.93c-2.6-4.34-6.46-6.52-11.49-6.72c-0.5,0.03-0.99,0.04-1.47,0.1C10.26,0.35,10,0.38,9.74,0.43
		c-4.03,0.78-7.1,2.92-9.2,6.44c-0.26,0.43-0.25,0.82,0,1.25c2.82,4.87,8.28,7.43,13.85,6.4c4.02-0.75,7.03-2.97,9.1-6.49
		C23.71,7.66,23.7,7.3,23.48,6.93z M12,12.69c-2.86,0.01-5.2-2.33-5.21-5.18c-0.01-2.85,2.33-5.19,5.19-5.2
		c2.86-0.01,5.2,2.32,5.21,5.18C17.2,10.33,14.86,12.68,12,12.69z"/>
	<path class="st0" d="M23.48,6.93c-2.6-4.34-6.46-6.52-11.49-6.72c-0.5,0.03-0.99,0.04-1.47,0.1C10.26,0.35,10,0.38,9.74,0.43
		c-4.03,0.78-7.1,2.92-9.2,6.44c-0.26,0.43-0.25,0.82,0,1.25c2.82,4.87,8.28,7.43,13.85,6.4c4.02-0.75,7.03-2.97,9.1-6.49
		C23.71,7.66,23.7,7.3,23.48,6.93z M12,12.69c-2.86,0.01-5.2-2.33-5.21-5.18c-0.01-2.85,2.33-5.19,5.19-5.2
		c2.86-0.01,5.2,2.32,5.21,5.18C17.2,10.33,14.86,12.68,12,12.69z"/>
</g>
</svg>
