<?xml version="1.0" encoding="utf-8"?>
<!-- Generator: Adobe Illustrator 25.0.1, SVG Export Plug-In . SVG Version: 6.00 Build 0)  -->
<svg version="1.1" id="Layer_1" xmlns="http://www.w3.org/2000/svg" xmlns:xlink="http://www.w3.org/1999/xlink" x="0px" y="0px"
	 viewBox="0 0 16 16" style="enable-background:new 0 0 16 16;" xml:space="preserve">
<style type="text/css">
	.st0{fill:none;stroke:#EC2650;stroke-width:0.5;stroke-miterlimit:10;}
	.st1{fill:#EC2650;}
	.st2{fill:none;stroke:#EC2650;stroke-width:0.25;stroke-miterlimit:10;}
</style>
<g>
	<g>
		<path class="st1" d="M8.03,5.4L7.31,7.56H6.4l2.33-6.85h1.07l2.34,6.85h-0.95L10.45,5.4H8.03z M10.27,4.71L9.6,2.74
			C9.45,2.29,9.35,1.89,9.25,1.49H9.23C9.12,1.9,9.01,2.31,8.88,2.73L8.21,4.71H10.27z"/>
	</g>
	<g>
		<path class="st1" d="M6.77,14.77l3.8-5.56V9.18H7.09V8.44h4.62v0.54l-3.78,5.54v0.03h3.83v0.74h-5V14.77z"/>
	</g>
	<g>
		<g>
			<line class="st2" x1="3.87" y1="0.71" x2="3.87" y2="13.78"/>
			<g>
				<path class="st1" d="M3.87,15.29c-0.26-0.71-0.71-1.59-1.19-2.14l1.19,0.43l1.19-0.43C4.58,13.7,4.13,14.58,3.87,15.29z"/>
			</g>
		</g>
	</g>
</g>
</svg>
