<svg xmlns="http://www.w3.org/2000/svg" width="130.222" height="154.61" viewBox="0 0 130.222 154.61">
  <g id="Group_322" data-name="Group 322" transform="translate(-119.278 -224.873)">
    <g id="Group_321" data-name="Group 321">
      <path id="Path_1040" data-name="Path 1040" d="M786.271,164.358H695.622a19.845,19.845,0,0,0-19.786,19.786V274.8a19.844,19.844,0,0,0,19.786,19.783h57.657c7.9,7.3,15.512,14.317,23.78,21.988,4.774,4.4,6.425,2.321,6.643-2.764l.339-19.224h2.23A19.842,19.842,0,0,0,806.058,274.8V184.144a19.843,19.843,0,0,0-19.786-19.786" transform="translate(-556.558 60.515)" fill="#f5204e" fill-rule="evenodd"/>
      <g id="Group_317" data-name="Group 317">
        <path id="Stroke_3" data-name="Stroke 3" d="M.5,0V42.041" transform="translate(183 260.95)" fill="none" stroke="#fff" stroke-linecap="round" stroke-linejoin="round" stroke-width="15" stroke-dasharray="0 0"/>
        <path id="Stroke_15" data-name="Stroke 15" d="M.5.5H.519" transform="translate(183.504 323.702)" fill="none" stroke="#fff" stroke-linecap="round" stroke-linejoin="round" stroke-width="15" stroke-dasharray="0 0"/>
      </g>
    </g>
  </g>
</svg>
