<svg xmlns="http://www.w3.org/2000/svg" width="99.432" height="118.053" viewBox="0 0 99.432 118.053">
  <g id="Group_319" data-name="Group 319" transform="translate(-88.428 -38.528)">
    <path id="Path_625" data-name="Path 625" d="M760.16,164.358H690.944a15.152,15.152,0,0,0-15.108,15.108v69.218a15.152,15.152,0,0,0,15.108,15.106h44.025c6.032,5.577,11.845,10.932,18.158,16.789,3.645,3.36,4.906,1.772,5.072-2.111l.259-14.678h1.7a15.15,15.15,0,0,0,15.108-15.106V179.466a15.151,15.151,0,0,0-15.108-15.108" transform="translate(-587.408 -125.83)" fill="#f5204e" fill-rule="evenodd"/>
    <path id="Path_626" data-name="Path 626" d="M738.434,218.814h-7.44l-2.143-2.881c.024-.045.183-.237.377-.471a7.238,7.238,0,0,0,.5-.652,11.415,11.415,0,0,0,1.809-5.8,19.458,19.458,0,0,0-.816-6.181,1.961,1.961,0,0,0-.52-.932,1.514,1.514,0,0,1-.352-.555c-.2-.54-.408-1.079-.632-1.621s-.466-1.079-.736-1.623a15.7,15.7,0,0,0-4.884-6.136,6.654,6.654,0,0,0-5.832-.868c-.276.084-.546.179-.814.289a8.613,8.613,0,0,0-.809.386l-.11.06c-.384.207-.548.3-.617.322a1.439,1.439,0,0,0-.693-.076,1.9,1.9,0,0,0-.87.263,1.827,1.827,0,0,0-.691.753,1.942,1.942,0,0,0-.207.984,1.822,1.822,0,0,0,.261.855,1.916,1.916,0,0,0,.976.829,1.874,1.874,0,0,0,1.071.067,1.9,1.9,0,0,0,.932-.514,1.847,1.847,0,0,0,.527-1.124,1.819,1.819,0,0,0,0-.285c0-.069-.007-.108.131-.2a4.881,4.881,0,0,1,3.587-.809,6.353,6.353,0,0,1,3.516,2.033,15.442,15.442,0,0,1,2.13,3.007,26.651,26.651,0,0,1,1.83,4.058c.125.354.121.36.114.371-.078.132-.2.33.212,1.9a15.9,15.9,0,0,1,.451,2.279,16.9,16.9,0,0,1,.091,2.229,9.345,9.345,0,0,1-.16,1.4,10.379,10.379,0,0,1-.341,1.4,6.312,6.312,0,0,1-2.26,3.2,7.072,7.072,0,0,1-3.9,1.2,9.411,9.411,0,0,1-2.7-.354,14.307,14.307,0,0,1-2.925-1.14l-.671-.371-.673-.4a3.273,3.273,0,0,0-1.427-.637c-.291-.041-.462-.067-2.635-2.012a20.094,20.094,0,0,1-2.148-2.227,9.871,9.871,0,0,1-2.186-4.159,4.649,4.649,0,0,1,1.189-4.185,7.193,7.193,0,0,1,.721-.695l.015,0a1.793,1.793,0,0,0,2.15-.548,1.717,1.717,0,0,0,.261-2.014,2.167,2.167,0,0,0-1.655-1.088,1.7,1.7,0,0,0-1.746,1.019,1.492,1.492,0,0,0-.2.788l0,.166a7.8,7.8,0,0,0-2.523,3.544,6.867,6.867,0,0,0-.006,4.258,12.98,12.98,0,0,0,2.428,4.239,26.364,26.364,0,0,0,4.509,4.213c.518.386.572.512.62.624.105.248.2.464,1.979,1.519a15.807,15.807,0,0,0,1.906.965,16.954,16.954,0,0,0,1.886.678,13.966,13.966,0,0,0,1.964.447,11.492,11.492,0,0,0,2.005.117,10.1,10.1,0,0,0,2.091-.255,11.645,11.645,0,0,0,2.029-.7c.591.706,2.568,3.395,3.913,5.227v3.963A13.086,13.086,0,0,1,717.244,240H705.967a1.773,1.773,0,0,1-1.77-1.768v-19.42h-19.42a1.771,1.771,0,0,1-1.768-1.768V194.489a1.771,1.771,0,0,1,1.768-1.768H704.2V173.3a1.773,1.773,0,0,1,1.77-1.768h22.556a1.774,1.774,0,0,1,1.768,1.768v19.422h19.422a1.774,1.774,0,0,1,1.768,1.768v11.279a13.087,13.087,0,0,1-13.047,13.047" transform="translate(-579.101 -117.521)" fill="#fff" fill-rule="evenodd"/>
  </g>
</svg>
