<svg id="Icon_24px_Main_icon_24pxCamera_Copy" data-name="Icon / 24px / Main / icon_24pxCamera Copy" xmlns="http://www.w3.org/2000/svg" width="24" height="24" viewBox="0 0 24 24">
  <g id="Icon_24px_3_User" data-name="Icon / 24px / 3 User">
    <rect id="Icon_24px_3_User_Background_" data-name="Icon / 24px / 3 User (Background)" width="24" height="24" fill="none"/>
    <g id="_3_User" data-name="3 User" transform="translate(1.75 3.75)">
      <path id="Stroke_1" data-name="Stroke 1" d="M0,3.67C0,1.708,2.749,0,6.006,0c3.239,0,6.006,1.692,6.006,3.653S9.263,6.122,6.006,6.122C2.767,6.122,0,5.632,0,3.67Z" transform="translate(4.217 10.497)" fill="none" stroke="#f5204e" stroke-linecap="round" stroke-linejoin="round" stroke-width="1.5" stroke-dasharray="0 0"/>
      <path id="Stroke_3" data-name="Stroke 3" d="M7.7,3.85A3.85,3.85,0,1,0,3.823,7.7H3.85A3.85,3.85,0,0,0,7.7,3.85Z" transform="translate(6.373)" fill="none" stroke="#f5204e" stroke-linecap="round" stroke-linejoin="round" stroke-width="1.5" stroke-dasharray="0 0"/>
      <path id="Stroke_5" data-name="Stroke 5" d="M.166,5.643a2.9,2.9,0,0,0,2.149-2.8A2.9,2.9,0,0,0,0,0" transform="translate(16.446 0.999)" fill="none" stroke="#f5204e" stroke-linecap="round" stroke-linejoin="round" stroke-width="1.5" stroke-dasharray="0 0"/>
      <path id="Stroke_7" data-name="Stroke 7" d="M0,0C1.754,0,3.252,1.189,3.252,2.251a1.64,1.64,0,0,1-1.3,1.49" transform="translate(17.193 9.795)" fill="none" stroke="#f5204e" stroke-linecap="round" stroke-linejoin="round" stroke-width="1.5" stroke-dasharray="0 0"/>
      <path id="Stroke_9" data-name="Stroke 9" d="M2.15,5.643A2.9,2.9,0,0,1,2.315,0" transform="translate(1.684 0.999)" fill="none" stroke="#f5204e" stroke-linecap="round" stroke-linejoin="round" stroke-width="1.5" stroke-dasharray="0 0"/>
      <path id="Stroke_11" data-name="Stroke 11" d="M3.252,0C1.5,0,0,1.189,0,2.251a1.64,1.64,0,0,0,1.3,1.49" transform="translate(0 9.795)" fill="none" stroke="#f5204e" stroke-linecap="round" stroke-linejoin="round" stroke-width="1.5" stroke-dasharray="0 0"/>
    </g>
  </g>
</svg>
