<svg id="Icon_64px_microscope_Copy" data-name="Icon / 64px / microscope Copy" xmlns="http://www.w3.org/2000/svg" xmlns:xlink="http://www.w3.org/1999/xlink" width="32" height="32" viewBox="0 0 32 32">
  <defs>
    <clipPath id="clip-path">
      <rect id="_008-vaccine_Background_Mask_" data-name="008-vaccine (Background/Mask)" width="32" height="32" fill="none"/>
    </clipPath>
  </defs>
  <g id="Icon_64px_Vaccine" data-name="Icon / 64px / Vaccine">
    <g id="_008-vaccine" data-name="008-vaccine">
      <rect id="_008-vaccine_Background_Mask_2" data-name="008-vaccine (Background/Mask)" width="32" height="32" fill="none"/>
      <g id="_008-vaccine-2" data-name="008-vaccine" clip-path="url(#clip-path)">
        <g id="_07-Vaccine" data-name="07-Vaccine" transform="translate(1.5 0.5)">
          <path id="Vector" d="M7.854,1.854A.5.5,0,0,1,7.5,2H.5A.5.5,0,0,1,0,1.5V.5A.5.5,0,0,1,.5,0h7A.5.5,0,0,1,8,.5v1A.5.5,0,0,1,7.854,1.854Z" transform="translate(20.5 13)" fill="#006fdb"/>
          <path id="Vector-2" data-name="Vector" d="M9,9.5a1,1,0,0,1-1,1H1a1,1,0,0,1-1-1V0H9Z" transform="translate(20 20.5)" fill="#006fdb"/>
          <path id="Vector-3" data-name="Vector" d="M6,9a1,1,0,0,1-1,1H1A1,1,0,0,1,0,9V0H6Z" transform="translate(11.5 21)" fill="#006fdb"/>
          <path id="Vector-4" data-name="Vector" d="M0,13v-.53a1.958,1.958,0,0,1,.21-.89L1.5,9,.655,7.315a1,1,0,0,1-.08-.66L1.83.79A1,1,0,0,1,2.81,0h.38a1,1,0,0,1,.98.79L5.425,6.655a1,1,0,0,1-.08.66L4.5,9l1.29,2.58a1.958,1.958,0,0,1,.21.89V13Z" transform="translate(11.5 8)" fill="#edf4fa"/>
          <path id="Vector-5" data-name="Vector" d="M2.525,7.475A3.5,3.5,0,0,1,1.5,5V0H0V9a1,1,0,0,0,1,1H5A1,1,0,0,0,6,9V7.5a1,1,0,0,1-1,1H5A3.5,3.5,0,0,1,2.525,7.475Z" transform="translate(11.5 21)" fill="#004080"/>
          <path id="Vector-6" data-name="Vector" d="M6,0V2H0V0Z" transform="translate(21.5 15)" fill="#d6e0eb"/>
          <path id="Vector-7" data-name="Vector" d="M8.882,1.064A.991.991,0,0,1,9,1.535V3.5H0V1.535A.991.991,0,0,1,.445.7L1.5,0h6L8.555.7A.99.99,0,0,1,8.882,1.064Z" transform="translate(20 17)" fill="#edf4fa"/>
          <path id="Vector-8" data-name="Vector" d="M1.5,1a.5.5,0,1,1,0-1H.5A.5.5,0,0,0,0,.5v1A.5.5,0,0,0,.5,2h7A.5.5,0,0,0,8,1.5V.5A.491.491,0,0,0,7.95.292,1,1,0,0,1,7,1H1.5Z" transform="translate(20.5 13)" fill="#005eba"/>
          <path id="Vector-9" data-name="Vector" d="M0,0V2H1A1,1,0,0,1,2,1H6V0Z" transform="translate(21.5 15)" fill="#a8b7d4"/>
          <path id="Vector-10" data-name="Vector" d="M7.5,9a6,6,0,0,1-6-6V0H0V9.5a1,1,0,0,0,1,1H8a1,1,0,0,0,1-1V8A1,1,0,0,1,8,9Z" transform="translate(20 20.5)" fill="#004080"/>
          <path id="Vector-11" data-name="Vector" d="M1.652,1.063A2,2,0,0,1,2.086.414L2.5,0h-1L.445.7A.991.991,0,0,0,0,1.535V3.5H1.5V1.829A2,2,0,0,1,1.652,1.063Z" transform="translate(20 17)" fill="#c1cfe8"/>
          <g id="Group" transform="translate(15.5 21.5)">
            <path id="Vector-12" data-name="Vector" d="M1,0V1H0V0Z" transform="translate(11.5 2)" fill="#0dcef9"/>
            <path id="Vector-13" data-name="Vector" d="M1,0V1H0V0Z" transform="translate(11.5)" fill="#0dcef9"/>
            <path id="Vector-14" data-name="Vector" d="M1,0V1H0V0Z" transform="translate(0 2.5)" fill="#0dcef9"/>
            <path id="Vector-15" data-name="Vector" d="M1,0V1H0V0Z" transform="translate(0 0.5)" fill="#0dcef9"/>
          </g>
          <path id="Vector-16" data-name="Vector" d="M3.209,6.854a1.5,1.5,0,0,1-.821-1.668L3.33.79A1,1,0,0,1,3.75.175,1,1,0,0,0,3.19,0H2.81a1,1,0,0,0-.98.79L.575,6.655a1,1,0,0,0,.08.66L1.5,9,.21,11.58a1.958,1.958,0,0,0-.21.89V13H1.5v-.53a1.958,1.958,0,0,1,.21-.89L2.724,9.553A1,1,0,0,1,3.618,9H4.5l.845-1.685A1.009,1.009,0,0,0,5.44,7H3.856A1.5,1.5,0,0,1,3.209,6.854Z" transform="translate(11.5 8)" fill="#c1cfe8"/>
          <path id="Vector-17" data-name="Vector" d="M1.15,2.355A.5.5,0,0,1,1,2V1.619a.5.5,0,0,0-.277-.447L.28.949A.5.5,0,1,1,.727.054l.448.224A1.492,1.492,0,0,1,2,1.619V2a.5.5,0,0,1-.5.5h0A.5.5,0,0,1,1.15,2.355Z" transform="translate(25.997 17.499)" fill="#fff"/>
          <path id="Vector-18" data-name="Vector" d="M5,2H0V0H5Z" transform="translate(2.5 17.5)" fill="#a8b7d4"/>
          <path id="Vector-19" data-name="Vector" d="M5,11H0V1L1,0H4L5,1Z" transform="translate(2.5 6.5)" fill="#006fdb"/>
          <path id="Vector-20" data-name="Vector" d="M3,2.5H0V.5L.5,0h2L3,.5Z" transform="translate(3.5 4)" fill="#005eba"/>
          <path id="Vector-21" data-name="Vector" d="M3,0V7.5H0V0H3Z" transform="translate(3.5 23.5)" fill="#a8b7d4"/>
          <path id="Vector-22" data-name="Vector" d="M2.5,4H0V0H2.5Z" transform="translate(2.5 19.5)" fill="#edf4fa"/>
          <path id="Vector-23" data-name="Vector" d="M2.5,4H0V0H2.5Z" transform="translate(5 19.5)" fill="#edf4fa"/>
          <path id="Vector-24" data-name="Vector" d="M5.5,0a.5.5,0,0,1,0,1H.5a.5.5,0,0,1,0-1Z" transform="translate(2 30)" fill="#d6e0eb"/>
          <path id="Vector-25" data-name="Vector" d="M1,0V10.5H0V0Z" transform="translate(4.5 19.5)" fill="#8394b2"/>
          <path id="Vector-26" data-name="Vector" d="M.854.146A.5.5,0,0,1,1,.5V4H0V.5A.5.5,0,0,1,.5,0h0A.5.5,0,0,1,.854.146Z" transform="translate(4.5)" fill="#c1cfe8"/>
          <path id="Vector-27" data-name="Vector" d="M.5,0,0,.5H3L2.5,0H.5Z" transform="translate(3.5 4)" fill="#c1cfe8"/>
          <path id="Vector-28" data-name="Vector" d="M1,0H0V2H3V1.5H2a1,1,0,0,1-1-1Z" transform="translate(3.5 4.5)" fill="#004080"/>
          <path id="Vector-29" data-name="Vector" d="M1,0,0,1H5L4,0Z" transform="translate(2.5 6.5)" fill="#4aa4f2"/>
          <path id="Vector-30" data-name="Vector" d="M2.232,7.768A2.5,2.5,0,0,1,1.5,6V0H0V10H5V7.5a1,1,0,0,1-1,1H4A2.5,2.5,0,0,1,2.232,7.768Z" transform="translate(2.5 7.5)" fill="#004080"/>
          <path id="Vector-31" data-name="Vector" d="M1,0,0,1H1.5L2,0Z" transform="translate(2.5 6.5)" fill="#006fdb"/>
          <path id="Vector-32" data-name="Vector" d="M3,0V1H.5a.5.5,0,1,1,0-1H3Z" transform="translate(4.5 9)" fill="#edf4fa"/>
          <path id="Vector-33" data-name="Vector" d="M3,0V1H.5a.5.5,0,1,1,0-1H3Z" transform="translate(4.5 12)" fill="#edf4fa"/>
          <path id="Vector-34" data-name="Vector" d="M3,0V1H.5a.5.5,0,1,1,0-1H3Z" transform="translate(4.5 15)" fill="#edf4fa"/>
          <path id="Vector-35" data-name="Vector" d="M1,1V0A1,1,0,0,1,.707.707,1,1,0,0,1,0,1H1Z" transform="translate(6.5 15)" fill="#a8b7d4"/>
          <path id="Vector-36" data-name="Vector" d="M2,.844A2.484,2.484,0,0,1,.976.622,2.484,2.484,0,0,1,.137,0,.5.5,0,0,0,.5.844Z" transform="translate(4.503 15.156)" fill="#a8b7d4"/>
          <path id="Vector-37" data-name="Vector" d="M5,0V1H0V0Z" transform="translate(2.5 18)" fill="#8394b2"/>
          <path id="Vector-38" data-name="Vector" d="M2,0V1H0V0Z" transform="translate(2.5 19.5)" fill="#d6e0eb"/>
          <path id="Vector-39" data-name="Vector" d="M2,0V1H0V0Z" transform="translate(5.5 19.5)" fill="#d6e0eb"/>
          <path id="Vector-40" data-name="Vector" d="M1,0V1H0V0Z" transform="translate(4.5 19.5)" fill="#606c82"/>
          <path id="Vector-41" data-name="Vector" d="M1,0V1.5H0V0Z" transform="translate(3.5 23.5)" fill="#8394b2"/>
          <path id="Vector-42" data-name="Vector" d="M1,0V1.5H0V0Z" transform="translate(5.5 23.5)" fill="#8394b2"/>
          <path id="Vector-43" data-name="Vector" d="M1,0V1.5H0V0Z" transform="translate(4.5 23.5)" fill="#606c82"/>
          <path id="Vector-44" data-name="Vector" d="M9.5,0a.5.5,0,0,1,0,1H.5a.5.5,0,0,1,0-1Z" transform="translate(0 23)" fill="#d6e0eb"/>
          <path id="Vector-45" data-name="Vector" d="M.5.25A.493.493,0,0,1,.255.182.493.493,0,0,1,.077,0,.489.489,0,0,0,0,.25a.5.5,0,0,0,.5.5h9a.5.5,0,0,0,.5-.5A.489.489,0,0,0,9.924,0a.493.493,0,0,1-.178.182A.493.493,0,0,1,9.5.25H.5Z" transform="translate(0 23.25)" fill="#c1cfe8"/>
          <path id="Vector-46" data-name="Vector" d="M.5.25A.493.493,0,0,1,.255.182.493.493,0,0,1,.076,0,.488.488,0,0,0,0,.25a.5.5,0,0,0,.5.5h5A.5.5,0,0,0,6,.25.488.488,0,0,0,5.924,0a.493.493,0,0,1-.178.182A.493.493,0,0,1,5.5.25H.5Z" transform="translate(2 30.25)" fill="#c1cfe8"/>
        </g>
      </g>
    </g>
  </g>
</svg>
