<?xml version="1.0" encoding="utf-8"?>
<!-- Generator: Adobe Illustrator 25.0.1, SVG Export Plug-In . SVG Version: 6.00 Build 0)  -->
<svg version="1.1" id="Layer_1" xmlns="http://www.w3.org/2000/svg" xmlns:xlink="http://www.w3.org/1999/xlink" x="0px" y="0px"
	 viewBox="0 0 32 32" style="enable-background:new 0 0 32 32;" xml:space="preserve">
<style type="text/css">
	.st0{fill:#000000;}
	.st1{fill:#000000;}
	.st2{fill:none;stroke:#000000;stroke-width:2;stroke-miterlimit:10;}
</style>
<g>
	<path class="st0" d="M26.26,15.51c0.06,0.16,0.09,0.33,0.09,0.5v8.98c-0.01,1.63-1.08,2.98-2.66,3.37
		c-0.13,0.03-0.26,0.03-0.39,0.03c-5.49,0-10.99-0.01-16.48,0c-1.06,0-1.85-0.47-2.5-1.24c-0.36-0.44-0.59-0.95-0.69-1.51
		c0-0.02,0-0.04-0.01-0.05c0.14,0.05,0.12,0.2,0.16,0.31c0.35,1.16,1.09,1.93,2.24,2.31c0.2,0.07,0.4,0.1,0.6,0.1
		c5.56-0.01,11.11,0,16.67-0.01c1.07-0.01,1.84-0.62,2.43-1.47c0.38-0.55,0.55-1.18,0.55-1.84c0.01-2.96,0-5.92,0-8.88
		c0-0.16-0.01-0.32-0.06-0.47c-0.16-0.52-0.6-0.82-1.14-0.76c-0.51,0.05-0.9,0.47-0.92,1c-0.02,0.22-0.01,0.43-0.01,0.64v8.24
		c0,0.21,0,0.41-0.07,0.61c-0.17,0.52-0.58,0.84-1.13,0.86H7.19c-0.4,0-0.76-0.07-1.05-0.37c-0.21-0.22-0.33-0.48-0.34-0.79
		C5.79,25,5.79,24.93,5.79,24.86V9.24c0-0.17,0-0.34,0.06-0.5c0.14-0.47,0.57-0.81,1.09-0.85c0.13-0.02,0.26-0.01,0.4-0.01h8.5
		c0.12,0,0.25,0,0.37-0.01c0.46-0.05,0.86-0.42,0.93-0.87c0.07-0.5-0.18-0.95-0.63-1.15c-0.19-0.07-0.38-0.1-0.58-0.1
		c-2.99,0-5.99-0.01-8.98,0C5.49,5.76,4.18,6.79,3.78,8.2c-0.04,0.13-0.02,0.3-0.2,0.35C3.67,8.43,3.66,8.29,3.7,8.16
		c0.42-1.44,1.76-2.48,3.26-2.48c3.03-0.01,6.06-0.01,9.09-0.01c0.61,0,1.11,0.43,1.18,0.99c0.07,0.59-0.28,1.11-0.85,1.27
		c-0.14,0.04-0.27,0.03-0.4,0.03c-2.94,0-5.88,0.01-8.82-0.01c-0.75,0-1.3,0.51-1.3,1.28c0.02,5.22,0.02,10.44,0,15.65
		c-0.01,0.76,0.55,1.28,1.26,1.28c5.23-0.02,10.45-0.01,15.68,0c0.73,0,1.27-0.52,1.27-1.28c-0.02-2.99-0.01-5.98-0.01-8.96
		c0-0.55,0.39-1.02,0.92-1.12C25.52,14.69,26.06,14.99,26.26,15.51z"/>
	<path class="st0" d="M28.32,7.41c0.13,0.14,0.12,0.2-0.01,0.33c-2.92,2.91-7.02,7.02-9.93,9.94c-0.25,0.25-0.56,0.29-0.87,0.35
		c-1.12,0.23-2.25,0.45-3.38,0.67c-0.09,0.02-0.18,0.03-0.22,0.04c-0.47,0-0.7-0.32-0.61-0.79c0.1-0.51,0.21-1.03,0.31-1.54
		c0.16-0.77,0.32-1.54,0.47-2.31c0.03-0.17,0.11-0.3,0.22-0.41c2.94-2.94,7.06-7.06,9.99-10c0.14-0.13,0.2-0.1,0.31,0.01
		C25.84,4.94,27.07,6.18,28.32,7.41z"/>
	<path class="st1" d="M26.35,16.01v8.98c-0.01,1.63-1.08,2.98-2.66,3.37c-0.13,0.03-0.26,0.03-0.39,0.03c-5.49,0-10.99-0.01-16.48,0
		c-1.06,0-1.85-0.47-2.5-1.24c-0.36-0.44-0.59-0.95-0.69-1.51c0-0.02,0-0.04-0.01-0.05c-0.01-0.01-0.02-0.03-0.04-0.03V8.55
		C3.67,8.43,3.66,8.29,3.7,8.16c0.42-1.44,1.76-2.48,3.26-2.48c3.03-0.01,6.06-0.01,9.09-0.01c0.61,0,1.11,0.43,1.18,0.99
		c0.07,0.59-0.28,1.11-0.85,1.27c-0.14,0.04-0.27,0.03-0.4,0.03c-2.94,0-5.88,0.01-8.82-0.01c-0.75,0-1.3,0.51-1.3,1.28
		c0.02,5.22,0.02,10.44,0,15.65c-0.01,0.76,0.55,1.28,1.26,1.28c5.23-0.02,10.45-0.01,15.68,0c0.73,0,1.27-0.52,1.27-1.28
		c-0.02-2.99-0.01-5.98-0.01-8.96c0-0.55,0.39-1.02,0.92-1.12c0.54-0.11,1.08,0.19,1.28,0.71C26.32,15.67,26.35,15.84,26.35,16.01z"
		/>
	<path class="st2" d="M28.31,7.74c-2.92,2.91-7.02,7.02-9.93,9.94c-0.25,0.25-0.56,0.29-0.87,0.35c-1.12,0.23-2.25,0.45-3.38,0.67
		c-0.09,0.02-0.18,0.03-0.22,0.04c-0.47,0-0.7-0.32-0.61-0.79c0.1-0.51,0.21-1.03,0.31-1.54c0.16-0.77,0.32-1.54,0.47-2.31
		c0.03-0.17,0.11-0.3,0.22-0.41c2.94-2.94,7.06-7.06,9.99-10c0.14-0.13,0.2-0.1,0.31,0.01c1.24,1.24,2.47,2.48,3.72,3.71
		C28.45,7.55,28.44,7.61,28.31,7.74z"/>
</g>
</svg>
