<svg id="Icon_24px_Main_icon_24pxPaperDownload" data-name="Icon / 24px / Main / icon_24pxPaperDownload" xmlns="http://www.w3.org/2000/svg" width="24" height="24" viewBox="0 0 24 24">
  <g id="Icon_24px_Paper_Download" data-name="Icon / 24px / Paper Download">
    <rect id="Icon_24px_Paper_Download_Background_" data-name="Icon / 24px / Paper Download (Background)" width="24" height="24" fill="none"/>
    <g id="Paper_Download" data-name="Paper Download" transform="translate(3.649 2.75)">
      <path id="Stroke_1" data-name="Stroke 1" d="M10.84.15A18.2,18.2,0,0,0,8.39,0C2.1,0,0,2.32,0,9.25S2.1,18.5,8.39,18.5s8.4-2.31,8.4-9.25a21.045,21.045,0,0,0-.28-3.7Z" fill="none" stroke="#f5204e" stroke-linecap="round" stroke-linejoin="round" stroke-width="1.5" stroke-dasharray="0 0"/>
      <path id="Stroke_3" data-name="Stroke 3" d="M0,0V2.661A3.363,3.363,0,0,0,3.364,6.024H6.315" transform="translate(10.284 0.083)" fill="none" stroke="#f5204e" stroke-linecap="round" stroke-linejoin="round" stroke-width="1.5" stroke-dasharray="0 0"/>
      <path id="Stroke_5" data-name="Stroke 5" d="M.5,6.041V0" transform="translate(7.511 7.226)" fill="none" stroke="#f5204e" stroke-linecap="round" stroke-linejoin="round" stroke-width="1.5" stroke-dasharray="0 0"/>
      <path id="Stroke_7" data-name="Stroke 7" d="M0,0,2.345,2.355,4.69,0" transform="translate(5.665 10.912)" fill="none" stroke="#f5204e" stroke-linecap="round" stroke-linejoin="round" stroke-width="1.5" stroke-dasharray="0 0"/>
    </g>
  </g>
</svg>
