<svg id="Icon_32px_Serum" data-name="Icon / 32px / Serum" xmlns="http://www.w3.org/2000/svg" xmlns:xlink="http://www.w3.org/1999/xlink" width="32" height="32" viewBox="0 0 32 32">
  <defs>
    <clipPath id="clip-path">
      <rect id="_023-serum_Background_Mask_" data-name="023-serum (Background/Mask)" width="32" height="32" fill="none"/>
    </clipPath>
  </defs>
  <g id="Icon_32px_Serum-2" data-name="Icon / 32px / Serum">
    <g id="_023-serum" data-name="023-serum">
      <rect id="_023-serum_Background_Mask_2" data-name="023-serum (Background/Mask)" width="32" height="32" fill="none"/>
      <g id="_023-serum-2" data-name="023-serum" clip-path="url(#clip-path)">
        <g id="Group" transform="translate(1.8 1.143)">
          <path id="Vector" d="M0,4.5V0H8.5V19.25a4.25,4.25,0,0,1-8.5,0V8.5" transform="translate(1.7 3.857)" fill="#ebebeb"/>
          <path id="Vector-2" data-name="Vector" d="M10,0a1.5,1.5,0,0,1,1.5,1.5v1A1.5,1.5,0,0,1,10,4H1.5A1.5,1.5,0,0,1,0,2.5v-1A1.5,1.5,0,0,1,1.5,0Z" transform="translate(0 0.158)" fill="#e3fcfd"/>
          <path id="Vector-3" data-name="Vector" d="M.44,9.955A1.66,1.66,0,0,1,0,8.825V0H4V9.89a1.5,1.5,0,0,1-2.56,1.135h0Z" transform="translate(19.76 17.857)" fill="#e3fcfd"/>
          <path id="Vector-4" data-name="Vector" d="M10.622,14.386a.415.415,0,0,1-.122-.293V11.818a.405.405,0,0,1,.15-.315,6.5,6.5,0,1,0-8.3,0,.4.4,0,0,1,.15.315v2.275a.415.415,0,0,1-.415.415A2.06,2.06,0,0,0,.01,16.313a2,2,0,0,0,2,2.195h9a2,2,0,0,0,2-2.195,2.06,2.06,0,0,0-2.095-1.805h0A.415.415,0,0,1,10.622,14.386Z" transform="translate(15.25)" fill="#ebebeb"/>
        </g>
        <path id="Vector-5" data-name="Vector" d="M0,9A4.25,4.25,0,0,0,8.5,9V0C6.655.015,3.66,1,0,5.755Z" transform="translate(3.5 15.55)" fill="#c3c9c9"/>
        <path id="Vector-6" data-name="Vector" d="M6.75,29.51A5.25,5.25,0,0,1,1.5,24.26V13.5a1,1,0,0,1,.292-.707,1,1,0,0,1,1.414,0A.994.994,0,0,1,3.5,13.5v5.1A10.324,10.324,0,0,1,10,14.57v-.7a1,1,0,0,1,0-1.725V6H3.5V9.5a1,1,0,0,1-2,0V5.79A2.5,2.5,0,0,1,0,3.5v-1A2.5,2.5,0,0,1,2.5,0H11a2.5,2.5,0,0,1,2.5,2.5v1A2.5,2.5,0,0,1,12,5.79V24.26a5.25,5.25,0,0,1-5.25,5.25ZM10,16.61c-3.747.655-6.072,4.821-6.5,5.649v2a3.269,3.269,0,0,0,.952,2.3,3.248,3.248,0,0,0,4.6,0A3.269,3.269,0,0,0,10,24.26ZM2.5,2.01a.5.5,0,0,0-.354.147A.5.5,0,0,0,2,2.51v1a.5.5,0,0,0,.147.354A.5.5,0,0,0,2.5,4.01H11a.5.5,0,0,0,.354-.147A.5.5,0,0,0,11.5,3.51v-1a.5.5,0,0,0-.147-.354A.5.5,0,0,0,11,2.01Z" transform="translate(1 0.24)" fill="#f5204e"/>
        <path id="Vector-7" data-name="Vector" d="M1,2A1,1,0,1,1,2,1,1,1,0,0,1,1,2Z" transform="translate(6.5 12.24)" fill="#8f9596"/>
        <path id="Vector-8" data-name="Vector" d="M1,2A1,1,0,1,1,2,1,1,1,0,0,1,1,2Z" transform="translate(7 8.24)" fill="#f5204e"/>
        <path id="Vector-9" data-name="Vector" d="M8.014,31.514H8.007a2.408,2.408,0,0,1-1.783-.79l-1-1.07a2.627,2.627,0,0,1-.709-1.82v-7.32H3a3,3,0,0,1-2.987-3.29,3.046,3.046,0,0,1,2.5-2.655V13.094a7.466,7.466,0,0,1-2.5-5.58A7.218,7.218,0,0,1,2.152,2.3,7.52,7.52,0,0,1,7.464,0a6.849,6.849,0,0,1,.9.06A7.564,7.564,0,0,1,14.934,6.4a7.5,7.5,0,0,1-2.42,6.694v1.475a3.046,3.046,0,0,1,2.5,2.655,3,3,0,0,1-2.987,3.29H10.514V28.9a2.559,2.559,0,0,1-2.5,2.61Zm-1.5-11v7.32a.651.651,0,0,0,.17.455l1,1.07a.536.536,0,0,0,.356.157c.2,0,.434-.161.473-.612v-8.39Zm-3.45-4a1.06,1.06,0,0,0-1.05.9,1,1,0,0,0,.255.773,1,1,0,0,0,.745.328h9a1,1,0,0,0,.74-.33.986.986,0,0,0,.212-.357,1.01,1.01,0,0,0,.049-.413,1.06,1.06,0,0,0-1.044-.88h-.041a1.424,1.424,0,0,1-1-.415,1.406,1.406,0,0,1-.415-1V12.845a1.41,1.41,0,0,1,.5-1.085,5.5,5.5,0,0,0-3.5-9.742c-.118,0-.238,0-.357.012a5.5,5.5,0,0,0-3.146,9.731,1.405,1.405,0,0,1,.5,1.065V15.1A1.416,1.416,0,0,1,3.1,16.514H3.065Z" transform="translate(15.986 0.24)" fill="#f5204e"/>
        <path id="Vector-10" data-name="Vector" d="M1,2A1,1,0,1,1,2,1,1,1,0,0,1,1,2Z" transform="translate(14.875 29.74)" fill="#f5204e"/>
        <path id="Vector-11" data-name="Vector" d="M.293,1.707A1,1,0,0,0,1,2H8.875a1,1,0,0,0,0-2H1A1,1,0,0,0,0,1H0A1,1,0,0,0,.293,1.707Z" transform="translate(3 29.74)" fill="#f5204e"/>
      </g>
    </g>
  </g>
</svg>
