<svg id="Icon_24px_Main_icon_24pxCamera_Copy_5" data-name="Icon / 24px / Main / icon_24pxCamera Copy 5" xmlns="http://www.w3.org/2000/svg" width="24" height="24" viewBox="0 0 24 24">
  <g id="Icon_24px_Setting" data-name="Icon / 24px / Setting">
    <rect id="Icon_24px_Setting_Background_" data-name="Icon / 24px / Setting (Background)" width="24" height="24" fill="none"/>
    <g id="Setting" transform="translate(3.5 2.5)">
      <path id="Stroke_1" data-name="Stroke 1" d="M5,2.5A2.5,2.5,0,1,1,2.5,0,2.5,2.5,0,0,1,5,2.5Z" transform="translate(6 7)" fill="none" stroke="#f5204e" stroke-linecap="round" stroke-linejoin="round" stroke-width="1.5" stroke-dasharray="0 0"/>
      <path id="Stroke_3" data-name="Stroke 3" d="M16.668,4.75a2.464,2.464,0,0,0-3.379-.912,1.543,1.543,0,0,1-2.314-1.346A2.484,2.484,0,0,0,8.5,0h0A2.484,2.484,0,0,0,6.025,2.492,1.543,1.543,0,0,1,3.712,3.839a2.465,2.465,0,0,0-3.38.912,2.5,2.5,0,0,0,.906,3.4,1.56,1.56,0,0,1,0,2.692,2.5,2.5,0,0,0-.906,3.4,2.465,2.465,0,0,0,3.379.913h0a1.542,1.542,0,0,1,2.313,1.345h0A2.484,2.484,0,0,0,8.5,19h0a2.484,2.484,0,0,0,2.474-2.492h0a1.543,1.543,0,0,1,2.314-1.345,2.465,2.465,0,0,0,3.379-.913,2.5,2.5,0,0,0-.905-3.4h0a1.56,1.56,0,0,1,0-2.692,2.5,2.5,0,0,0,.905-3.4Z" fill="none" stroke="#f5204e" stroke-linecap="round" stroke-linejoin="round" stroke-width="1.5" stroke-dasharray="0 0"/>
    </g>
  </g>
</svg>
