<svg width="18" height="16" viewBox="0 0 18 16" fill="none" xmlns="http://www.w3.org/2000/svg">
<path fill-rule="evenodd" clip-rule="evenodd" d="M1.8541 4C0.83011 4 0 4.83011 0 5.8541V10.8571C0 12.8619 0 13.8643 0.459827 14.5961C0.69961 14.9777 1.02229 15.3004 1.4039 15.5402C2.13571 16 3.1381 16 5.14286 16H12.8571C14.8619 16 15.8643 16 16.5961 15.5402C16.9777 15.3004 17.3004 14.9777 17.5402 14.5961C18 13.8643 18 12.8619 18 10.8571V5.8541C18 4.83011 17.1699 4 16.1459 4C15.4436 4 14.8016 3.60322 14.4875 2.97508L13.6667 1.33333L13.6666 1.33329C13.5567 1.1134 13.5017 1.00345 13.4394 0.907819C13.1141 0.408817 12.5833 0.0807755 11.9915 0.0129916C11.8781 0 11.7552 0 11.5093 0H6.49071C6.24484 0 6.1219 0 6.00848 0.0129916C5.41668 0.0807755 4.8859 0.408817 4.56062 0.907819C4.49827 1.00346 4.44329 1.11342 4.33333 1.33333L3.51246 2.97508C3.19839 3.60322 2.55638 4 1.8541 4ZM11 9C11 10.1046 10.1046 11 9 11C7.89543 11 7 10.1046 7 9C7 7.89543 7.89543 7 9 7C10.1046 7 11 7.89543 11 9ZM13 9C13 11.2091 11.2091 13 9 13C6.79086 13 5 11.2091 5 9C5 6.79086 6.79086 5 9 5C11.2091 5 13 6.79086 13 9Z" fill="#222222"/>
</svg>
